<?xml version="1.0" encoding="iso-8859-1"?>
<!-- Generator: Adobe Illustrator 19.0.0, SVG Export Plug-In . SVG Version: 6.00 Build 0)  -->
<svg xmlns="http://www.w3.org/2000/svg" xmlns:xlink="http://www.w3.org/1999/xlink" version="1.1" id="Layer_1" x="0px" y="0px" viewBox="0 0 512 512" style="enable-background:new 0 0 512 512;" xml:space="preserve" width="512px" height="512px">
<g>
	<g>
		<path d="M511.183,271.857c-1.359-2.797-4.195-4.572-7.305-4.572H233.366l52.161-53.341c0.441-0.451,0.811-0.942,1.125-1.458    c0.302-0.272,0.595-0.56,0.86-0.885c12.001-14.624,18.611-33.116,18.611-52.069c0-45.286-36.842-82.13-82.125-82.13    c-21.318,0-41.382,8.088-56.735,22.778c-0.044,0.042-0.091,0.078-0.134,0.121l-0.143,0.142c-0.352,0.34-0.716,0.665-1.063,1.013    c-0.165,0.165-0.316,0.339-0.465,0.513L33.007,234.299c-0.004,0.004-0.01,0.009-0.014,0.013    c-43.991,43.991-43.991,115.574,0,159.569c26.021,26.024,61.649,40.717,98.37,40.716c1.473,0,2.948-0.023,4.424-0.07h179.097    c4.487,0,8.122-3.635,8.122-8.122c0-4.487-3.635-8.122-8.122-8.122h-179.23c-0.09,0-0.18,0.001-0.27,0.004    c-34.331,1.17-66.622-11.607-90.904-35.89c-37.658-37.662-37.658-98.938,0-136.597c14.285-14.288,33.282-22.155,53.489-22.155    c7.724,0,15.268,1.159,22.443,3.378l-41.646,38.581c-1.079,0.887-2.12,1.831-3.121,2.832    c-9.636,9.633-14.943,22.442-14.944,36.068c0,13.626,5.307,26.436,14.942,36.07c11.659,11.66,27.161,18.081,43.649,18.082    c0.001,0,0.001,0,0.002,0c16.488,0,31.99-6.421,43.65-18.079c2.97-2.968,5.622-6.135,7.989-9.442l46.549-47.603h269.686    L381.29,418.284h-36.077c-4.487,0-8.122,3.635-8.122,8.122c0,4.487,3.635,8.122,8.122,8.122h40.025    c2.493,0,4.847-1.145,6.386-3.104l118.64-150.997C512.185,277.98,512.542,274.654,511.183,271.857z M136.562,234.202    c4.527,2.694,8.787,5.887,12.73,9.537l-19.883,19.539c-5.1-3.463-10.87-5.748-16.973-6.725L136.562,234.202z M158.441,320.67    l-0.013,0.013c-0.603,0.616-1.085,1.305-1.452,2.036c-1.675,2.23-3.514,4.36-5.521,6.367    c-8.591,8.593-20.013,13.324-32.163,13.324c-12.15,0-23.572-4.733-32.163-13.325c-6.567-6.566-10.184-15.297-10.184-24.583    c0-9.285,3.617-18.015,10.185-24.58c4.946-4.946,11.521-7.671,18.515-7.671h0.001c6.995,0.001,13.57,2.726,18.515,7.671    c0.099,0.099,0.204,0.184,0.305,0.276c0.096,0.087,0.19,0.18,0.289,0.261c0.113,0.092,0.231,0.173,0.347,0.259    c0.104,0.077,0.206,0.159,0.313,0.23c0.118,0.079,0.242,0.146,0.364,0.218c0.11,0.065,0.219,0.136,0.331,0.196    c0.127,0.067,0.258,0.122,0.388,0.182c0.112,0.052,0.222,0.109,0.336,0.156c0.135,0.055,0.275,0.099,0.413,0.146    c0.112,0.039,0.222,0.083,0.335,0.117c0.141,0.042,0.284,0.072,0.426,0.105c0.114,0.027,0.225,0.061,0.34,0.083    c0.143,0.028,0.287,0.043,0.431,0.063c0.116,0.016,0.231,0.039,0.346,0.05c0.149,0.014,0.3,0.015,0.451,0.022    c0.11,0.004,0.221,0.016,0.331,0.016c0.259,0,0.518-0.013,0.775-0.037c0.029-0.003,0.057-0.01,0.087-0.012    c0.227-0.024,0.455-0.055,0.681-0.099c0.077-0.015,0.152-0.038,0.229-0.055c0.177-0.039,0.354-0.078,0.529-0.129    c0.095-0.028,0.187-0.066,0.282-0.097c0.153-0.051,0.308-0.1,0.457-0.159c0.104-0.042,0.204-0.094,0.306-0.141    c0.138-0.062,0.276-0.12,0.411-0.191c0.105-0.055,0.206-0.12,0.309-0.18c0.127-0.074,0.256-0.143,0.379-0.224    c0.104-0.068,0.201-0.146,0.303-0.22c0.118-0.086,0.238-0.167,0.352-0.259c0.095-0.077,0.184-0.165,0.277-0.247    c0.105-0.093,0.213-0.18,0.314-0.279l24.16-23.743c5.819,9.271,8.947,20,8.946,31.216    C168.705,299.481,165.108,310.958,158.441,320.67z M184.628,293.892c1.653-19.35-4.154-39.214-17.408-54.896    c-0.211-0.281-0.435-0.553-0.688-0.81c-0.011-0.011-0.023-0.019-0.032-0.03c-1.138-1.307-2.31-2.596-3.553-3.839    c-17.354-17.356-40.43-26.916-64.976-26.916c-0.002,0-0.002,0-0.004,0c-5.615,0-11.146,0.524-16.556,1.503l97.06-96.971    c12.32-11.793,28.42-18.286,45.528-18.286c36.327,0,65.881,29.556,65.881,65.885c0,15.205-5.3,30.036-14.923,41.763    c-0.243,0.296-0.453,0.608-0.647,0.925c-0.133,0.12-0.27,0.236-0.396,0.366L184.628,293.892z" fill="#41f51d"/>
	</g>
</g>
<g>
</g>
<g>
</g>
<g>
</g>
<g>
</g>
<g>
</g>
<g>
</g>
<g>
</g>
<g>
</g>
<g>
</g>
<g>
</g>
<g>
</g>
<g>
</g>
<g>
</g>
<g>
</g>
<g>
</g>
</svg>
