<?xml version="1.0" encoding="iso-8859-1"?>
<!-- Generator: Adobe Illustrator 19.0.0, SVG Export Plug-In . SVG Version: 6.00 Build 0)  -->
<svg xmlns="http://www.w3.org/2000/svg" xmlns:xlink="http://www.w3.org/1999/xlink" version="1.1" id="Layer_1" x="0px" y="0px" viewBox="0 0 512 512" style="enable-background:new 0 0 512 512;" xml:space="preserve" width="512px" height="512px">
<g>
	<g>
		<path d="M486.813,374.311h-23.721c-4.479,0-8.108,3.629-8.108,8.108v4.866h-41.416c-4.479,0-8.108,3.629-8.108,8.108    s3.629,8.108,8.108,8.108h41.416v13.199H57.017V403.5h40.679c0.005,0,0.011,0.001,0.016,0.001c0.004,0,0.009-0.001,0.014-0.001    h286.659c4.479,0,8.108-3.629,8.108-8.108c0-4.479-3.629-8.108-8.108-8.108H179.026l-52.001-66.933l45.14-162.062l11.411,14.329    c4.797,5.879,11.908,9.25,19.511,9.25c0.769,0,1.543-0.036,2.311-0.106c0.898,0.082,1.792,0.124,2.668,0.124h57.44    c16.595,0,30.096-13.739,30.096-30.627c0-16.889-13.501-30.629-30.096-30.629h-43.083l-53.314-66.987    c-0.483-0.609-0.966-1.142-1.358-1.563L133.902,9.571c-4.802-5.891-11.921-9.269-19.528-9.269c-5.778,0-11.427,2.013-15.911,5.669    l-9.559,7.799c-10.761,8.779-12.375,24.676-3.658,35.364l39.963,50.188c-12.07,6.02-19.759,18.312-19.759,31.932    c0,7.393,2.26,14.269,6.125,19.972l-62.352,223.1c-0.105-0.004-0.209-0.016-0.315-0.016H25.187C11.299,374.311,0,385.61,0,399.497    v87.015c0,13.888,11.299,25.186,25.187,25.186h23.721c4.479,0,8.108-3.629,8.108-8.108v-3.78h43.056    c4.479,0,8.108-3.629,8.108-8.108c0-4.479-3.629-8.108-8.108-8.108H57.017v-50.681h397.966v50.681H128.178    c-4.479,0-8.108,3.629-8.108,8.108c0,4.479,3.629,8.108,8.108,8.108h326.805v3.78c0,4.479,3.629,8.108,8.108,8.108h23.721    c13.888,0,25.187-11.298,25.187-25.186v-87.015C512,385.61,500.701,374.311,486.813,374.311z M158.492,387.284h-50.109    l13.223-47.477L158.492,387.284z M97.873,38.959c-3.126-3.833-2.55-9.497,1.283-12.625l9.558-7.798    c2.046-1.669,4.207-2.019,5.66-2.019c2.713,0,5.251,1.203,6.903,3.227l14.786,18.569l-23.909,18.579L97.873,38.959z     M122.256,69.579L146.164,51l9.094,11.42c0.13,0.162,0.266,0.321,0.408,0.474c0.255,0.275,0.517,0.545,0.755,0.845l55.75,70.049    c1.538,1.932,3.873,3.058,6.344,3.058h46.993c7.654,0,13.881,6.466,13.881,14.414c0,7.947-6.227,14.411-13.881,14.411h-57.44    c-0.531,0-1.09-0.037-1.662-0.109c-0.338-0.043-0.678-0.065-1.017-0.065c-0.362,0-0.723,0.024-1.082,0.072    c-3.09,0.411-6.214-0.815-8.102-3.129L122.256,69.579z M133.566,113.303c0.694-0.293,1.32-0.679,1.882-1.125l22.816,28.652    c-0.263,0.299-0.514,0.614-0.736,0.958c-3.611,5.599-9.736,8.941-16.384,8.941c-10.739,0-19.476-8.737-19.476-19.476    C121.667,123.409,126.337,116.361,133.566,113.303z M125.092,163.117c4.828,2.442,10.28,3.828,16.051,3.828    c4.309,0,8.493-0.781,12.4-2.224L91.55,387.284H62.44L125.092,163.117z M40.801,395.391v29.414v66.897v3.78H25.187    c-4.947,0-8.972-4.025-8.972-8.971v-87.015c0-4.947,4.025-8.972,8.972-8.972h15.614V395.391z M495.784,486.513    c0,4.946-4.025,8.971-8.972,8.971h-15.614v-3.78v-66.897v-29.414v-4.866h15.614c4.947,0,8.972,4.025,8.972,8.972V486.513z" fill="#000000"/>
	</g>
</g>
<g>
</g>
<g>
</g>
<g>
</g>
<g>
</g>
<g>
</g>
<g>
</g>
<g>
</g>
<g>
</g>
<g>
</g>
<g>
</g>
<g>
</g>
<g>
</g>
<g>
</g>
<g>
</g>
<g>
</g>
</svg>
